<mxfile host="app.diagrams.net" agent="Mozilla/5.0 (Windows NT 10.0; Win64; x64) AppleWebKit/537.36 (KHTML, like Gecko) Chrome/128.0.0.0 Safari/537.36 OPR/114.0.0.0" version="25.0.3">
  <diagram name="1 oldal" id="eb8lpz6kQdsjBvIG6VrX">
    <mxGraphModel dx="1811" dy="1035" grid="1" gridSize="10" guides="1" tooltips="1" connect="1" arrows="1" fold="1" page="1" pageScale="1" pageWidth="827" pageHeight="1169" math="0" shadow="0">
      <root>
        <mxCell id="0" />
        <mxCell id="1" parent="0" />
        <mxCell id="h1CXB3GS33fbaFZyuamF-31" value="" style="group" vertex="1" connectable="0" parent="1">
          <mxGeometry x="510" y="220" width="180" height="30" as="geometry" />
        </mxCell>
        <mxCell id="h1CXB3GS33fbaFZyuamF-27" value="" style="html=1;dashed=0;whiteSpace=wrap;shape=mxgraph.dfd.dataStoreID;align=left;spacingLeft=3;points=[[0,0],[0.5,0],[1,0],[0,0.5],[1,0.5],[0,1],[0.5,1],[1,1]];" vertex="1" parent="h1CXB3GS33fbaFZyuamF-31">
          <mxGeometry width="180" height="30" as="geometry" />
        </mxCell>
        <mxCell id="h1CXB3GS33fbaFZyuamF-29" value="Felhasználók" style="text;html=1;align=center;verticalAlign=middle;whiteSpace=wrap;rounded=0;" vertex="1" parent="h1CXB3GS33fbaFZyuamF-31">
          <mxGeometry x="30" width="100" height="30" as="geometry" />
        </mxCell>
        <mxCell id="h1CXB3GS33fbaFZyuamF-30" value="L1" style="text;html=1;align=center;verticalAlign=middle;whiteSpace=wrap;rounded=0;" vertex="1" parent="h1CXB3GS33fbaFZyuamF-31">
          <mxGeometry width="30" height="30" as="geometry" />
        </mxCell>
        <mxCell id="h1CXB3GS33fbaFZyuamF-160" value="" style="endArrow=none;html=1;rounded=0;entryX=0.164;entryY=0.006;entryDx=0;entryDy=0;entryPerimeter=0;exitX=0.17;exitY=1.001;exitDx=0;exitDy=0;exitPerimeter=0;" edge="1" parent="h1CXB3GS33fbaFZyuamF-31" source="h1CXB3GS33fbaFZyuamF-30" target="h1CXB3GS33fbaFZyuamF-30">
          <mxGeometry width="50" height="50" relative="1" as="geometry">
            <mxPoint x="-10" y="40" as="sourcePoint" />
            <mxPoint x="40" y="-10" as="targetPoint" />
          </mxGeometry>
        </mxCell>
        <mxCell id="h1CXB3GS33fbaFZyuamF-39" value="" style="group" vertex="1" connectable="0" parent="1">
          <mxGeometry x="320" y="120" width="120" height="110" as="geometry" />
        </mxCell>
        <mxCell id="h1CXB3GS33fbaFZyuamF-33" value="" style="rounded=0;whiteSpace=wrap;html=1;" vertex="1" parent="h1CXB3GS33fbaFZyuamF-39">
          <mxGeometry y="30" width="120" height="80" as="geometry" />
        </mxCell>
        <mxCell id="h1CXB3GS33fbaFZyuamF-34" value="" style="rounded=0;whiteSpace=wrap;html=1;" vertex="1" parent="h1CXB3GS33fbaFZyuamF-39">
          <mxGeometry width="30" height="30" as="geometry" />
        </mxCell>
        <mxCell id="h1CXB3GS33fbaFZyuamF-35" value="" style="rounded=0;whiteSpace=wrap;html=1;" vertex="1" parent="h1CXB3GS33fbaFZyuamF-39">
          <mxGeometry x="30" width="90" height="30" as="geometry" />
        </mxCell>
        <mxCell id="h1CXB3GS33fbaFZyuamF-36" value="1" style="text;html=1;align=center;verticalAlign=middle;whiteSpace=wrap;rounded=0;" vertex="1" parent="h1CXB3GS33fbaFZyuamF-39">
          <mxGeometry width="30" height="30" as="geometry" />
        </mxCell>
        <mxCell id="h1CXB3GS33fbaFZyuamF-38" value="Bejelentkezés" style="text;html=1;align=center;verticalAlign=middle;whiteSpace=wrap;rounded=0;" vertex="1" parent="h1CXB3GS33fbaFZyuamF-39">
          <mxGeometry x="30" y="55" width="60" height="30" as="geometry" />
        </mxCell>
        <mxCell id="h1CXB3GS33fbaFZyuamF-118" value="" style="endArrow=none;html=1;rounded=0;" edge="1" parent="h1CXB3GS33fbaFZyuamF-39">
          <mxGeometry width="50" height="50" relative="1" as="geometry">
            <mxPoint x="95" y="110" as="sourcePoint" />
            <mxPoint x="120" y="85" as="targetPoint" />
          </mxGeometry>
        </mxCell>
        <mxCell id="h1CXB3GS33fbaFZyuamF-119" value="*" style="text;html=1;align=center;verticalAlign=middle;whiteSpace=wrap;rounded=0;fontSize=16;" vertex="1" parent="h1CXB3GS33fbaFZyuamF-39">
          <mxGeometry x="110" y="100" width="10" height="10" as="geometry" />
        </mxCell>
        <mxCell id="h1CXB3GS33fbaFZyuamF-41" value="" style="group" vertex="1" connectable="0" parent="1">
          <mxGeometry y="210" width="120" height="80" as="geometry" />
        </mxCell>
        <mxCell id="h1CXB3GS33fbaFZyuamF-42" value="Látogató" style="ellipse;whiteSpace=wrap;html=1;" vertex="1" parent="h1CXB3GS33fbaFZyuamF-41">
          <mxGeometry width="120" height="80" as="geometry" />
        </mxCell>
        <mxCell id="h1CXB3GS33fbaFZyuamF-43" value="" style="endArrow=none;html=1;rounded=0;entryX=0.445;entryY=0.004;entryDx=0;entryDy=0;exitX=0.01;exitY=0.606;exitDx=0;exitDy=0;exitPerimeter=0;entryPerimeter=0;" edge="1" parent="h1CXB3GS33fbaFZyuamF-41" source="h1CXB3GS33fbaFZyuamF-42" target="h1CXB3GS33fbaFZyuamF-42">
          <mxGeometry width="50" height="50" relative="1" as="geometry">
            <mxPoint x="150" y="200" as="sourcePoint" />
            <mxPoint x="200" y="150" as="targetPoint" />
          </mxGeometry>
        </mxCell>
        <mxCell id="h1CXB3GS33fbaFZyuamF-44" value="" style="group" vertex="1" connectable="0" parent="1">
          <mxGeometry y="700" width="120" height="80" as="geometry" />
        </mxCell>
        <mxCell id="h1CXB3GS33fbaFZyuamF-45" value="Bejelentkezett Felhasználó" style="ellipse;whiteSpace=wrap;html=1;" vertex="1" parent="h1CXB3GS33fbaFZyuamF-44">
          <mxGeometry width="120" height="80" as="geometry" />
        </mxCell>
        <mxCell id="h1CXB3GS33fbaFZyuamF-130" value="" style="endArrow=none;html=1;rounded=0;exitX=0.011;exitY=0.593;exitDx=0;exitDy=0;exitPerimeter=0;entryX=0.431;entryY=0.007;entryDx=0;entryDy=0;entryPerimeter=0;" edge="1" parent="h1CXB3GS33fbaFZyuamF-44" source="h1CXB3GS33fbaFZyuamF-45" target="h1CXB3GS33fbaFZyuamF-45">
          <mxGeometry width="50" height="50" relative="1" as="geometry">
            <mxPoint y="48" as="sourcePoint" />
            <mxPoint x="52" as="targetPoint" />
          </mxGeometry>
        </mxCell>
        <mxCell id="h1CXB3GS33fbaFZyuamF-47" style="edgeStyle=orthogonalEdgeStyle;rounded=0;orthogonalLoop=1;jettySize=auto;html=1;exitX=0.5;exitY=0;exitDx=0;exitDy=0;" edge="1" parent="1" source="h1CXB3GS33fbaFZyuamF-42" target="h1CXB3GS33fbaFZyuamF-33">
          <mxGeometry relative="1" as="geometry" />
        </mxCell>
        <mxCell id="h1CXB3GS33fbaFZyuamF-48" value="E-mail, jelszó" style="edgeLabel;html=1;align=center;verticalAlign=middle;resizable=0;points=[];" vertex="1" connectable="0" parent="h1CXB3GS33fbaFZyuamF-47">
          <mxGeometry x="-0.1152" y="1" relative="1" as="geometry">
            <mxPoint y="-9" as="offset" />
          </mxGeometry>
        </mxCell>
        <mxCell id="h1CXB3GS33fbaFZyuamF-49" value="" style="group" vertex="1" connectable="0" parent="1">
          <mxGeometry x="320" y="615" width="120" height="110" as="geometry" />
        </mxCell>
        <mxCell id="h1CXB3GS33fbaFZyuamF-50" value="" style="rounded=0;whiteSpace=wrap;html=1;" vertex="1" parent="h1CXB3GS33fbaFZyuamF-49">
          <mxGeometry y="30" width="120" height="80" as="geometry" />
        </mxCell>
        <mxCell id="h1CXB3GS33fbaFZyuamF-51" value="" style="rounded=0;whiteSpace=wrap;html=1;" vertex="1" parent="h1CXB3GS33fbaFZyuamF-49">
          <mxGeometry width="30" height="30" as="geometry" />
        </mxCell>
        <mxCell id="h1CXB3GS33fbaFZyuamF-52" value="" style="rounded=0;whiteSpace=wrap;html=1;" vertex="1" parent="h1CXB3GS33fbaFZyuamF-49">
          <mxGeometry x="30" width="90" height="30" as="geometry" />
        </mxCell>
        <mxCell id="h1CXB3GS33fbaFZyuamF-53" value="4" style="text;html=1;align=center;verticalAlign=middle;whiteSpace=wrap;rounded=0;" vertex="1" parent="h1CXB3GS33fbaFZyuamF-49">
          <mxGeometry width="30" height="30" as="geometry" />
        </mxCell>
        <mxCell id="h1CXB3GS33fbaFZyuamF-54" value="Megfigyelések kezelése" style="text;html=1;align=center;verticalAlign=middle;whiteSpace=wrap;rounded=0;" vertex="1" parent="h1CXB3GS33fbaFZyuamF-49">
          <mxGeometry x="30" y="55" width="60" height="30" as="geometry" />
        </mxCell>
        <mxCell id="h1CXB3GS33fbaFZyuamF-75" style="edgeStyle=orthogonalEdgeStyle;rounded=0;orthogonalLoop=1;jettySize=auto;html=1;entryX=0;entryY=0.25;entryDx=0;entryDy=0;startArrow=classic;startFill=1;" edge="1" parent="1" source="h1CXB3GS33fbaFZyuamF-33" target="h1CXB3GS33fbaFZyuamF-30">
          <mxGeometry relative="1" as="geometry" />
        </mxCell>
        <mxCell id="h1CXB3GS33fbaFZyuamF-76" value="" style="group" vertex="1" connectable="0" parent="1">
          <mxGeometry y="610" width="120" height="80" as="geometry" />
        </mxCell>
        <mxCell id="h1CXB3GS33fbaFZyuamF-77" value="Látogató" style="ellipse;whiteSpace=wrap;html=1;" vertex="1" parent="h1CXB3GS33fbaFZyuamF-76">
          <mxGeometry width="120" height="80" as="geometry" />
        </mxCell>
        <mxCell id="h1CXB3GS33fbaFZyuamF-78" value="" style="endArrow=none;html=1;rounded=0;entryX=0.445;entryY=0.004;entryDx=0;entryDy=0;exitX=0.01;exitY=0.606;exitDx=0;exitDy=0;exitPerimeter=0;entryPerimeter=0;" edge="1" parent="h1CXB3GS33fbaFZyuamF-76" source="h1CXB3GS33fbaFZyuamF-77" target="h1CXB3GS33fbaFZyuamF-77">
          <mxGeometry width="50" height="50" relative="1" as="geometry">
            <mxPoint x="150" y="200" as="sourcePoint" />
            <mxPoint x="200" y="150" as="targetPoint" />
          </mxGeometry>
        </mxCell>
        <mxCell id="h1CXB3GS33fbaFZyuamF-97" style="edgeStyle=orthogonalEdgeStyle;rounded=0;orthogonalLoop=1;jettySize=auto;html=1;entryX=0;entryY=0.25;entryDx=0;entryDy=0;" edge="1" parent="1" source="h1CXB3GS33fbaFZyuamF-77" target="h1CXB3GS33fbaFZyuamF-50">
          <mxGeometry relative="1" as="geometry" />
        </mxCell>
        <mxCell id="h1CXB3GS33fbaFZyuamF-192" value="Létrehozási adatok, módosítási adatok" style="edgeLabel;html=1;align=center;verticalAlign=middle;resizable=0;points=[];" vertex="1" connectable="0" parent="h1CXB3GS33fbaFZyuamF-97">
          <mxGeometry x="-0.2845" y="-1" relative="1" as="geometry">
            <mxPoint x="23" y="-11" as="offset" />
          </mxGeometry>
        </mxCell>
        <mxCell id="h1CXB3GS33fbaFZyuamF-98" style="edgeStyle=orthogonalEdgeStyle;rounded=0;orthogonalLoop=1;jettySize=auto;html=1;" edge="1" parent="1" source="h1CXB3GS33fbaFZyuamF-45" target="h1CXB3GS33fbaFZyuamF-50">
          <mxGeometry relative="1" as="geometry">
            <Array as="points">
              <mxPoint x="220" y="740" />
              <mxPoint x="220" y="720" />
            </Array>
          </mxGeometry>
        </mxCell>
        <mxCell id="h1CXB3GS33fbaFZyuamF-198" value="Létrehozási adatok, módosítási adatok" style="edgeLabel;html=1;align=center;verticalAlign=middle;resizable=0;points=[];" vertex="1" connectable="0" parent="h1CXB3GS33fbaFZyuamF-98">
          <mxGeometry x="0.1" y="1" relative="1" as="geometry">
            <mxPoint y="-9" as="offset" />
          </mxGeometry>
        </mxCell>
        <mxCell id="h1CXB3GS33fbaFZyuamF-105" value="" style="group" vertex="1" connectable="0" parent="1">
          <mxGeometry x="510" y="675" width="180" height="30" as="geometry" />
        </mxCell>
        <mxCell id="h1CXB3GS33fbaFZyuamF-106" value="" style="html=1;dashed=0;whiteSpace=wrap;shape=mxgraph.dfd.dataStoreID;align=left;spacingLeft=3;points=[[0,0],[0.5,0],[1,0],[0,0.5],[1,0.5],[0,1],[0.5,1],[1,1]];" vertex="1" parent="h1CXB3GS33fbaFZyuamF-105">
          <mxGeometry width="180" height="30" as="geometry" />
        </mxCell>
        <mxCell id="h1CXB3GS33fbaFZyuamF-107" value="Megfigyelések" style="text;html=1;align=center;verticalAlign=middle;whiteSpace=wrap;rounded=0;" vertex="1" parent="h1CXB3GS33fbaFZyuamF-105">
          <mxGeometry x="30" width="100" height="30" as="geometry" />
        </mxCell>
        <mxCell id="h1CXB3GS33fbaFZyuamF-108" value="L3" style="text;html=1;align=center;verticalAlign=middle;whiteSpace=wrap;rounded=0;" vertex="1" parent="h1CXB3GS33fbaFZyuamF-105">
          <mxGeometry width="30" height="30" as="geometry" />
        </mxCell>
        <mxCell id="h1CXB3GS33fbaFZyuamF-109" style="edgeStyle=orthogonalEdgeStyle;rounded=0;orthogonalLoop=1;jettySize=auto;html=1;entryX=0.002;entryY=0.343;entryDx=0;entryDy=0;entryPerimeter=0;startArrow=classic;startFill=1;" edge="1" parent="1" source="h1CXB3GS33fbaFZyuamF-50" target="h1CXB3GS33fbaFZyuamF-108">
          <mxGeometry relative="1" as="geometry" />
        </mxCell>
        <mxCell id="h1CXB3GS33fbaFZyuamF-120" value="" style="group" vertex="1" connectable="0" parent="1">
          <mxGeometry x="320" y="420" width="120" height="110" as="geometry" />
        </mxCell>
        <mxCell id="h1CXB3GS33fbaFZyuamF-121" value="" style="rounded=0;whiteSpace=wrap;html=1;" vertex="1" parent="h1CXB3GS33fbaFZyuamF-120">
          <mxGeometry y="30" width="120" height="80" as="geometry" />
        </mxCell>
        <mxCell id="h1CXB3GS33fbaFZyuamF-122" value="" style="rounded=0;whiteSpace=wrap;html=1;" vertex="1" parent="h1CXB3GS33fbaFZyuamF-120">
          <mxGeometry width="30" height="30" as="geometry" />
        </mxCell>
        <mxCell id="h1CXB3GS33fbaFZyuamF-123" value="" style="rounded=0;whiteSpace=wrap;html=1;" vertex="1" parent="h1CXB3GS33fbaFZyuamF-120">
          <mxGeometry x="30" width="90" height="30" as="geometry" />
        </mxCell>
        <mxCell id="h1CXB3GS33fbaFZyuamF-124" value="3" style="text;html=1;align=center;verticalAlign=middle;whiteSpace=wrap;rounded=0;" vertex="1" parent="h1CXB3GS33fbaFZyuamF-120">
          <mxGeometry width="30" height="30" as="geometry" />
        </mxCell>
        <mxCell id="h1CXB3GS33fbaFZyuamF-125" value="Madarak megtekintése" style="text;html=1;align=center;verticalAlign=middle;whiteSpace=wrap;rounded=0;" vertex="1" parent="h1CXB3GS33fbaFZyuamF-120">
          <mxGeometry x="30" y="55" width="60" height="30" as="geometry" />
        </mxCell>
        <mxCell id="h1CXB3GS33fbaFZyuamF-128" value="" style="endArrow=none;html=1;rounded=0;" edge="1" parent="h1CXB3GS33fbaFZyuamF-120">
          <mxGeometry width="50" height="50" relative="1" as="geometry">
            <mxPoint x="95" y="110" as="sourcePoint" />
            <mxPoint x="120" y="85" as="targetPoint" />
          </mxGeometry>
        </mxCell>
        <mxCell id="h1CXB3GS33fbaFZyuamF-129" value="*" style="text;html=1;align=center;verticalAlign=middle;whiteSpace=wrap;rounded=0;fontSize=16;" vertex="1" parent="h1CXB3GS33fbaFZyuamF-120">
          <mxGeometry x="110" y="100" width="10" height="10" as="geometry" />
        </mxCell>
        <mxCell id="h1CXB3GS33fbaFZyuamF-131" value="" style="group" vertex="1" connectable="0" parent="1">
          <mxGeometry x="320" y="250" width="120" height="110" as="geometry" />
        </mxCell>
        <mxCell id="h1CXB3GS33fbaFZyuamF-132" value="" style="rounded=0;whiteSpace=wrap;html=1;" vertex="1" parent="h1CXB3GS33fbaFZyuamF-131">
          <mxGeometry y="30" width="120" height="80" as="geometry" />
        </mxCell>
        <mxCell id="h1CXB3GS33fbaFZyuamF-133" value="" style="rounded=0;whiteSpace=wrap;html=1;" vertex="1" parent="h1CXB3GS33fbaFZyuamF-131">
          <mxGeometry width="30" height="30" as="geometry" />
        </mxCell>
        <mxCell id="h1CXB3GS33fbaFZyuamF-134" value="" style="rounded=0;whiteSpace=wrap;html=1;" vertex="1" parent="h1CXB3GS33fbaFZyuamF-131">
          <mxGeometry x="30" width="90" height="30" as="geometry" />
        </mxCell>
        <mxCell id="h1CXB3GS33fbaFZyuamF-135" value="2" style="text;html=1;align=center;verticalAlign=middle;whiteSpace=wrap;rounded=0;" vertex="1" parent="h1CXB3GS33fbaFZyuamF-131">
          <mxGeometry width="30" height="30" as="geometry" />
        </mxCell>
        <mxCell id="h1CXB3GS33fbaFZyuamF-136" value="Regisztráció" style="text;html=1;align=center;verticalAlign=middle;whiteSpace=wrap;rounded=0;" vertex="1" parent="h1CXB3GS33fbaFZyuamF-131">
          <mxGeometry x="30" y="55" width="60" height="30" as="geometry" />
        </mxCell>
        <mxCell id="h1CXB3GS33fbaFZyuamF-137" value="" style="endArrow=none;html=1;rounded=0;" edge="1" parent="h1CXB3GS33fbaFZyuamF-131">
          <mxGeometry width="50" height="50" relative="1" as="geometry">
            <mxPoint x="95" y="110" as="sourcePoint" />
            <mxPoint x="120" y="85" as="targetPoint" />
          </mxGeometry>
        </mxCell>
        <mxCell id="h1CXB3GS33fbaFZyuamF-138" value="*" style="text;html=1;align=center;verticalAlign=middle;whiteSpace=wrap;rounded=0;fontSize=16;" vertex="1" parent="h1CXB3GS33fbaFZyuamF-131">
          <mxGeometry x="110" y="100" width="10" height="10" as="geometry" />
        </mxCell>
        <mxCell id="h1CXB3GS33fbaFZyuamF-139" value="" style="group" vertex="1" connectable="0" parent="1">
          <mxGeometry x="320" y="800" width="120" height="110" as="geometry" />
        </mxCell>
        <mxCell id="h1CXB3GS33fbaFZyuamF-140" value="" style="rounded=0;whiteSpace=wrap;html=1;" vertex="1" parent="h1CXB3GS33fbaFZyuamF-139">
          <mxGeometry y="30" width="120" height="80" as="geometry" />
        </mxCell>
        <mxCell id="h1CXB3GS33fbaFZyuamF-141" value="" style="rounded=0;whiteSpace=wrap;html=1;" vertex="1" parent="h1CXB3GS33fbaFZyuamF-139">
          <mxGeometry width="30" height="30" as="geometry" />
        </mxCell>
        <mxCell id="h1CXB3GS33fbaFZyuamF-142" value="" style="rounded=0;whiteSpace=wrap;html=1;" vertex="1" parent="h1CXB3GS33fbaFZyuamF-139">
          <mxGeometry x="30" width="90" height="30" as="geometry" />
        </mxCell>
        <mxCell id="h1CXB3GS33fbaFZyuamF-143" value="5" style="text;html=1;align=center;verticalAlign=middle;whiteSpace=wrap;rounded=0;" vertex="1" parent="h1CXB3GS33fbaFZyuamF-139">
          <mxGeometry width="30" height="30" as="geometry" />
        </mxCell>
        <mxCell id="h1CXB3GS33fbaFZyuamF-144" value="Fiók kezelése" style="text;html=1;align=center;verticalAlign=middle;whiteSpace=wrap;rounded=0;" vertex="1" parent="h1CXB3GS33fbaFZyuamF-139">
          <mxGeometry x="30" y="55" width="60" height="30" as="geometry" />
        </mxCell>
        <mxCell id="h1CXB3GS33fbaFZyuamF-148" value="" style="endArrow=none;html=1;rounded=0;" edge="1" parent="h1CXB3GS33fbaFZyuamF-139">
          <mxGeometry width="50" height="50" relative="1" as="geometry">
            <mxPoint x="95" y="110" as="sourcePoint" />
            <mxPoint x="120" y="85" as="targetPoint" />
          </mxGeometry>
        </mxCell>
        <mxCell id="h1CXB3GS33fbaFZyuamF-149" value="*" style="text;html=1;align=center;verticalAlign=middle;whiteSpace=wrap;rounded=0;fontSize=16;" vertex="1" parent="h1CXB3GS33fbaFZyuamF-139">
          <mxGeometry x="110" y="100" width="10" height="10" as="geometry" />
        </mxCell>
        <mxCell id="h1CXB3GS33fbaFZyuamF-147" style="edgeStyle=orthogonalEdgeStyle;rounded=0;orthogonalLoop=1;jettySize=auto;html=1;entryX=0;entryY=0.75;entryDx=0;entryDy=0;startArrow=none;startFill=0;" edge="1" parent="1" source="h1CXB3GS33fbaFZyuamF-132" target="h1CXB3GS33fbaFZyuamF-30">
          <mxGeometry relative="1" as="geometry" />
        </mxCell>
        <mxCell id="h1CXB3GS33fbaFZyuamF-151" style="edgeStyle=orthogonalEdgeStyle;rounded=0;orthogonalLoop=1;jettySize=auto;html=1;exitX=0.5;exitY=1;exitDx=0;exitDy=0;entryX=0;entryY=0.5;entryDx=0;entryDy=0;" edge="1" parent="1" source="h1CXB3GS33fbaFZyuamF-42" target="h1CXB3GS33fbaFZyuamF-132">
          <mxGeometry relative="1" as="geometry" />
        </mxCell>
        <mxCell id="h1CXB3GS33fbaFZyuamF-155" value="E-mail, jelszó, megerősítő jelszó" style="edgeLabel;html=1;align=center;verticalAlign=middle;resizable=0;points=[];" vertex="1" connectable="0" parent="h1CXB3GS33fbaFZyuamF-151">
          <mxGeometry x="0.0533" y="-1" relative="1" as="geometry">
            <mxPoint y="-11" as="offset" />
          </mxGeometry>
        </mxCell>
        <mxCell id="h1CXB3GS33fbaFZyuamF-156" value="" style="group" vertex="1" connectable="0" parent="1">
          <mxGeometry y="830" width="120" height="80" as="geometry" />
        </mxCell>
        <mxCell id="h1CXB3GS33fbaFZyuamF-157" value="Bejelentkezett Felhasználó" style="ellipse;whiteSpace=wrap;html=1;" vertex="1" parent="h1CXB3GS33fbaFZyuamF-156">
          <mxGeometry width="120" height="80" as="geometry" />
        </mxCell>
        <mxCell id="h1CXB3GS33fbaFZyuamF-158" value="" style="endArrow=none;html=1;rounded=0;exitX=0.011;exitY=0.593;exitDx=0;exitDy=0;exitPerimeter=0;entryX=0.431;entryY=0.007;entryDx=0;entryDy=0;entryPerimeter=0;" edge="1" parent="h1CXB3GS33fbaFZyuamF-156" source="h1CXB3GS33fbaFZyuamF-157" target="h1CXB3GS33fbaFZyuamF-157">
          <mxGeometry width="50" height="50" relative="1" as="geometry">
            <mxPoint y="48" as="sourcePoint" />
            <mxPoint x="52" as="targetPoint" />
          </mxGeometry>
        </mxCell>
        <mxCell id="h1CXB3GS33fbaFZyuamF-159" value="Módosított adatok" style="edgeStyle=orthogonalEdgeStyle;rounded=0;orthogonalLoop=1;jettySize=auto;html=1;" edge="1" parent="1" source="h1CXB3GS33fbaFZyuamF-157" target="h1CXB3GS33fbaFZyuamF-140">
          <mxGeometry y="10" relative="1" as="geometry">
            <Array as="points">
              <mxPoint x="220" y="860" />
              <mxPoint x="220" y="860" />
            </Array>
            <mxPoint as="offset" />
          </mxGeometry>
        </mxCell>
        <mxCell id="h1CXB3GS33fbaFZyuamF-161" value="" style="group" vertex="1" connectable="0" parent="1">
          <mxGeometry x="510" y="855" width="180" height="30" as="geometry" />
        </mxCell>
        <mxCell id="h1CXB3GS33fbaFZyuamF-162" value="" style="html=1;dashed=0;whiteSpace=wrap;shape=mxgraph.dfd.dataStoreID;align=left;spacingLeft=3;points=[[0,0],[0.5,0],[1,0],[0,0.5],[1,0.5],[0,1],[0.5,1],[1,1]];" vertex="1" parent="h1CXB3GS33fbaFZyuamF-161">
          <mxGeometry width="180" height="30" as="geometry" />
        </mxCell>
        <mxCell id="h1CXB3GS33fbaFZyuamF-163" value="Felhasználók" style="text;html=1;align=center;verticalAlign=middle;whiteSpace=wrap;rounded=0;" vertex="1" parent="h1CXB3GS33fbaFZyuamF-161">
          <mxGeometry x="30" width="100" height="30" as="geometry" />
        </mxCell>
        <mxCell id="h1CXB3GS33fbaFZyuamF-164" value="L1" style="text;html=1;align=center;verticalAlign=middle;whiteSpace=wrap;rounded=0;" vertex="1" parent="h1CXB3GS33fbaFZyuamF-161">
          <mxGeometry width="30" height="30" as="geometry" />
        </mxCell>
        <mxCell id="h1CXB3GS33fbaFZyuamF-165" value="" style="endArrow=none;html=1;rounded=0;entryX=0.164;entryY=0.006;entryDx=0;entryDy=0;entryPerimeter=0;exitX=0.17;exitY=1.001;exitDx=0;exitDy=0;exitPerimeter=0;" edge="1" parent="h1CXB3GS33fbaFZyuamF-161" source="h1CXB3GS33fbaFZyuamF-164" target="h1CXB3GS33fbaFZyuamF-164">
          <mxGeometry width="50" height="50" relative="1" as="geometry">
            <mxPoint x="-10" y="40" as="sourcePoint" />
            <mxPoint x="40" y="-10" as="targetPoint" />
          </mxGeometry>
        </mxCell>
        <mxCell id="h1CXB3GS33fbaFZyuamF-166" style="edgeStyle=orthogonalEdgeStyle;rounded=0;orthogonalLoop=1;jettySize=auto;html=1;entryX=0;entryY=0.5;entryDx=0;entryDy=0;startArrow=classic;startFill=1;" edge="1" parent="1" source="h1CXB3GS33fbaFZyuamF-140" target="h1CXB3GS33fbaFZyuamF-164">
          <mxGeometry relative="1" as="geometry" />
        </mxCell>
        <mxCell id="h1CXB3GS33fbaFZyuamF-167" value="" style="group" vertex="1" connectable="0" parent="1">
          <mxGeometry x="510" y="470" width="180" height="30" as="geometry" />
        </mxCell>
        <mxCell id="h1CXB3GS33fbaFZyuamF-168" value="" style="html=1;dashed=0;whiteSpace=wrap;shape=mxgraph.dfd.dataStoreID;align=left;spacingLeft=3;points=[[0,0],[0.5,0],[1,0],[0,0.5],[1,0.5],[0,1],[0.5,1],[1,1]];" vertex="1" parent="h1CXB3GS33fbaFZyuamF-167">
          <mxGeometry width="180" height="30" as="geometry" />
        </mxCell>
        <mxCell id="h1CXB3GS33fbaFZyuamF-169" value="Madarak" style="text;html=1;align=center;verticalAlign=middle;whiteSpace=wrap;rounded=0;" vertex="1" parent="h1CXB3GS33fbaFZyuamF-167">
          <mxGeometry x="30" width="100" height="30" as="geometry" />
        </mxCell>
        <mxCell id="h1CXB3GS33fbaFZyuamF-170" value="L2" style="text;html=1;align=center;verticalAlign=middle;whiteSpace=wrap;rounded=0;" vertex="1" parent="h1CXB3GS33fbaFZyuamF-167">
          <mxGeometry width="30" height="30" as="geometry" />
        </mxCell>
        <mxCell id="h1CXB3GS33fbaFZyuamF-171" style="edgeStyle=orthogonalEdgeStyle;rounded=0;orthogonalLoop=1;jettySize=auto;html=1;entryX=0;entryY=0.5;entryDx=0;entryDy=0;endArrow=none;endFill=0;startArrow=classic;startFill=1;" edge="1" parent="1" source="h1CXB3GS33fbaFZyuamF-121" target="h1CXB3GS33fbaFZyuamF-170">
          <mxGeometry relative="1" as="geometry" />
        </mxCell>
        <mxCell id="h1CXB3GS33fbaFZyuamF-172" value="" style="group" vertex="1" connectable="0" parent="1">
          <mxGeometry y="470" width="120" height="80" as="geometry" />
        </mxCell>
        <mxCell id="h1CXB3GS33fbaFZyuamF-173" value="Bejelentkezett Felhasználó" style="ellipse;whiteSpace=wrap;html=1;" vertex="1" parent="h1CXB3GS33fbaFZyuamF-172">
          <mxGeometry width="120" height="80" as="geometry" />
        </mxCell>
        <mxCell id="h1CXB3GS33fbaFZyuamF-174" value="" style="endArrow=none;html=1;rounded=0;exitX=0.011;exitY=0.593;exitDx=0;exitDy=0;exitPerimeter=0;entryX=0.431;entryY=0.007;entryDx=0;entryDy=0;entryPerimeter=0;" edge="1" parent="h1CXB3GS33fbaFZyuamF-172" source="h1CXB3GS33fbaFZyuamF-173" target="h1CXB3GS33fbaFZyuamF-173">
          <mxGeometry width="50" height="50" relative="1" as="geometry">
            <mxPoint y="48" as="sourcePoint" />
            <mxPoint x="52" as="targetPoint" />
          </mxGeometry>
        </mxCell>
        <mxCell id="h1CXB3GS33fbaFZyuamF-175" value="" style="group" vertex="1" connectable="0" parent="1">
          <mxGeometry y="360" width="120" height="80" as="geometry" />
        </mxCell>
        <mxCell id="h1CXB3GS33fbaFZyuamF-176" value="Látogató" style="ellipse;whiteSpace=wrap;html=1;" vertex="1" parent="h1CXB3GS33fbaFZyuamF-175">
          <mxGeometry width="120" height="80" as="geometry" />
        </mxCell>
        <mxCell id="h1CXB3GS33fbaFZyuamF-177" value="" style="endArrow=none;html=1;rounded=0;entryX=0.445;entryY=0.004;entryDx=0;entryDy=0;exitX=0.01;exitY=0.606;exitDx=0;exitDy=0;exitPerimeter=0;entryPerimeter=0;" edge="1" parent="h1CXB3GS33fbaFZyuamF-175" source="h1CXB3GS33fbaFZyuamF-176" target="h1CXB3GS33fbaFZyuamF-176">
          <mxGeometry width="50" height="50" relative="1" as="geometry">
            <mxPoint x="150" y="200" as="sourcePoint" />
            <mxPoint x="200" y="150" as="targetPoint" />
          </mxGeometry>
        </mxCell>
        <mxCell id="h1CXB3GS33fbaFZyuamF-178" style="edgeStyle=orthogonalEdgeStyle;rounded=0;orthogonalLoop=1;jettySize=auto;html=1;entryX=0;entryY=0.25;entryDx=0;entryDy=0;" edge="1" parent="1" source="h1CXB3GS33fbaFZyuamF-176" target="h1CXB3GS33fbaFZyuamF-124">
          <mxGeometry relative="1" as="geometry" />
        </mxCell>
        <mxCell id="h1CXB3GS33fbaFZyuamF-185" value="Madár neve, színe, alakja, élőhelye" style="edgeLabel;html=1;align=center;verticalAlign=middle;resizable=0;points=[];" vertex="1" connectable="0" parent="h1CXB3GS33fbaFZyuamF-178">
          <mxGeometry x="-0.4259" relative="1" as="geometry">
            <mxPoint x="25" y="-10" as="offset" />
          </mxGeometry>
        </mxCell>
        <mxCell id="h1CXB3GS33fbaFZyuamF-179" style="edgeStyle=orthogonalEdgeStyle;rounded=0;orthogonalLoop=1;jettySize=auto;html=1;entryX=0;entryY=0.75;entryDx=0;entryDy=0;exitX=1;exitY=0.5;exitDx=0;exitDy=0;" edge="1" parent="1" source="h1CXB3GS33fbaFZyuamF-173" target="h1CXB3GS33fbaFZyuamF-121">
          <mxGeometry relative="1" as="geometry" />
        </mxCell>
        <mxCell id="h1CXB3GS33fbaFZyuamF-183" value="Madár neve, színe, alakja, élőhelye" style="edgeLabel;html=1;align=center;verticalAlign=middle;resizable=0;points=[];" vertex="1" connectable="0" parent="h1CXB3GS33fbaFZyuamF-179">
          <mxGeometry x="-0.1441" relative="1" as="geometry">
            <mxPoint x="3" y="10" as="offset" />
          </mxGeometry>
        </mxCell>
        <mxCell id="h1CXB3GS33fbaFZyuamF-186" style="edgeStyle=orthogonalEdgeStyle;rounded=0;orthogonalLoop=1;jettySize=auto;html=1;exitX=0;exitY=0.25;exitDx=0;exitDy=0;entryX=0.979;entryY=0.65;entryDx=0;entryDy=0;entryPerimeter=0;" edge="1" parent="1" source="h1CXB3GS33fbaFZyuamF-121" target="h1CXB3GS33fbaFZyuamF-176">
          <mxGeometry relative="1" as="geometry" />
        </mxCell>
        <mxCell id="h1CXB3GS33fbaFZyuamF-187" value="Madarak listája, madár adata" style="edgeLabel;html=1;align=center;verticalAlign=middle;resizable=0;points=[];" vertex="1" connectable="0" parent="h1CXB3GS33fbaFZyuamF-186">
          <mxGeometry x="-0.0305" relative="1" as="geometry">
            <mxPoint x="7" y="-10" as="offset" />
          </mxGeometry>
        </mxCell>
        <mxCell id="h1CXB3GS33fbaFZyuamF-188" style="edgeStyle=orthogonalEdgeStyle;rounded=0;orthogonalLoop=1;jettySize=auto;html=1;entryX=1;entryY=1;entryDx=0;entryDy=0;" edge="1" parent="1" source="h1CXB3GS33fbaFZyuamF-121" target="h1CXB3GS33fbaFZyuamF-173">
          <mxGeometry relative="1" as="geometry">
            <Array as="points">
              <mxPoint x="380" y="560" />
              <mxPoint x="137" y="560" />
              <mxPoint x="137" y="538" />
            </Array>
          </mxGeometry>
        </mxCell>
        <mxCell id="h1CXB3GS33fbaFZyuamF-189" value="Madarak listája, madár adata" style="edgeLabel;html=1;align=center;verticalAlign=middle;resizable=0;points=[];" vertex="1" connectable="0" parent="h1CXB3GS33fbaFZyuamF-188">
          <mxGeometry x="0.2487" relative="1" as="geometry">
            <mxPoint x="12" y="10" as="offset" />
          </mxGeometry>
        </mxCell>
        <mxCell id="h1CXB3GS33fbaFZyuamF-194" style="edgeStyle=orthogonalEdgeStyle;rounded=0;orthogonalLoop=1;jettySize=auto;html=1;exitX=0;exitY=0.25;exitDx=0;exitDy=0;entryX=1;entryY=0;entryDx=0;entryDy=0;" edge="1" parent="1" source="h1CXB3GS33fbaFZyuamF-53" target="h1CXB3GS33fbaFZyuamF-77">
          <mxGeometry relative="1" as="geometry">
            <mxPoint x="110" y="622" as="targetPoint" />
          </mxGeometry>
        </mxCell>
        <mxCell id="h1CXB3GS33fbaFZyuamF-197" value="Megfigyelések listája, megfigyelés adata" style="edgeLabel;html=1;align=center;verticalAlign=middle;resizable=0;points=[];" vertex="1" connectable="0" parent="h1CXB3GS33fbaFZyuamF-194">
          <mxGeometry x="0.0247" y="1" relative="1" as="geometry">
            <mxPoint x="1" y="-10" as="offset" />
          </mxGeometry>
        </mxCell>
        <mxCell id="h1CXB3GS33fbaFZyuamF-195" style="edgeStyle=orthogonalEdgeStyle;rounded=0;orthogonalLoop=1;jettySize=auto;html=1;entryX=1;entryY=1;entryDx=0;entryDy=0;" edge="1" parent="1" source="h1CXB3GS33fbaFZyuamF-50" target="h1CXB3GS33fbaFZyuamF-45">
          <mxGeometry relative="1" as="geometry">
            <Array as="points">
              <mxPoint x="340" y="768" />
            </Array>
          </mxGeometry>
        </mxCell>
        <mxCell id="h1CXB3GS33fbaFZyuamF-196" value="Megfigyelések listája, megfigyelés adata" style="edgeLabel;html=1;align=center;verticalAlign=middle;resizable=0;points=[];" vertex="1" connectable="0" parent="h1CXB3GS33fbaFZyuamF-195">
          <mxGeometry x="0.2906" y="-1" relative="1" as="geometry">
            <mxPoint x="18" y="13" as="offset" />
          </mxGeometry>
        </mxCell>
        <mxCell id="h1CXB3GS33fbaFZyuamF-199" style="edgeStyle=orthogonalEdgeStyle;rounded=0;orthogonalLoop=1;jettySize=auto;html=1;" edge="1" parent="1" source="h1CXB3GS33fbaFZyuamF-140" target="h1CXB3GS33fbaFZyuamF-157">
          <mxGeometry relative="1" as="geometry">
            <Array as="points">
              <mxPoint x="220" y="880" />
              <mxPoint x="220" y="880" />
            </Array>
          </mxGeometry>
        </mxCell>
        <mxCell id="h1CXB3GS33fbaFZyuamF-201" value="Felhasználói adatok" style="edgeLabel;html=1;align=center;verticalAlign=middle;resizable=0;points=[];" vertex="1" connectable="0" parent="h1CXB3GS33fbaFZyuamF-199">
          <mxGeometry x="-0.043" relative="1" as="geometry">
            <mxPoint x="-3" y="10" as="offset" />
          </mxGeometry>
        </mxCell>
        <mxCell id="h1CXB3GS33fbaFZyuamF-202" value="" style="rounded=0;whiteSpace=wrap;html=1;dashed=1;fillColor=none;" vertex="1" parent="1">
          <mxGeometry x="220" y="60" width="530" height="940" as="geometry" />
        </mxCell>
      </root>
    </mxGraphModel>
  </diagram>
</mxfile>
